<svg width="15" height="15" viewBox="0 0 15 15" fill="none" xmlns="http://www.w3.org/2000/svg">
<path fill-rule="evenodd" clip-rule="evenodd" d="M7.5 13.5C10.8137 13.5 13.5 10.8137 13.5 7.5C13.5 4.18629 10.8137 1.5 7.5 1.5C4.18629 1.5 1.5 4.18629 1.5 7.5C1.5 10.8137 4.18629 13.5 7.5 13.5ZM8.25 5.25C8.25 4.83579 7.91421 4.5 7.5 4.5C7.08579 4.5 6.75 4.83579 6.75 5.25V6.75H5.25C4.83579 6.75 4.5 7.08579 4.5 7.5C4.5 7.91421 4.83579 8.25 5.25 8.25H6.75V9.75C6.75 10.1642 7.08579 10.5 7.5 10.5C7.91421 10.5 8.25 10.1642 8.25 9.75V8.25H9.75C10.1642 8.25 10.5 7.91421 10.5 7.5C10.5 7.08579 10.1642 6.75 9.75 6.75H8.25V5.25Z" fill="#00B2FF"/>
</svg>
