<svg width="35" height="35" viewBox="0 0 35 35" fill="none" xmlns="http://www.w3.org/2000/svg">
<path fill-rule="evenodd" clip-rule="evenodd" d="M21.875 5.83337L30.625 8.75004V16.0417H26.25V27.7084C26.25 28.5138 25.5971 29.1667 24.7917 29.1667H10.2083C9.40292 29.1667 8.75 28.5138 8.75 27.7084V16.0417H4.375V8.75004L13.125 5.83337C13.125 8.24962 15.0838 10.2084 17.5 10.2084C19.9162 10.2084 21.875 8.24962 21.875 5.83337Z" fill="#23C0FF"/>
<path d="M21.875 5.83337L30.625 8.75004V16.0417H26.25V27.7084C26.25 28.5138 25.5971 29.1667 24.7917 29.1667H10.2083C9.40292 29.1667 8.75 28.5138 8.75 27.7084V16.0417H4.375V8.75004L13.125 5.83337C13.125 8.24962 15.0838 10.2084 17.5 10.2084C19.9162 10.2084 21.875 8.24962 21.875 5.83337" stroke="black" stroke-width="1.5" stroke-linecap="round" stroke-linejoin="round"/>
</svg>
