<svg width="35" height="35" viewBox="0 0 35 35" fill="none" xmlns="http://www.w3.org/2000/svg">
<path d="M3.646 13.6445C3.646 13.3576 3.8786 13.125 4.16553 13.125H13.9651C23.5689 13.125 31.3543 20.9105 31.3543 30.5142C31.3543 30.5754 31.3047 30.625 31.2436 30.625H3.646V13.6445Z" fill="#23C0FF" stroke="black" stroke-width="2" stroke-linecap="round" stroke-linejoin="round"/>
<path d="M3.646 13.125V5.83337H18.2293" stroke="black" stroke-width="2" stroke-linecap="round" stroke-linejoin="round"/>
<path d="M10.9377 22.6042C12.5485 22.6042 13.8543 21.2984 13.8543 19.6875C13.8543 18.0767 12.5485 16.7709 10.9377 16.7709C9.32683 16.7709 8.021 18.0767 8.021 19.6875C8.021 21.2984 9.32683 22.6042 10.9377 22.6042Z" fill="#23C0FF" stroke="black" stroke-width="2"/>
<path d="M3.646 26.25H30.6252H3.646Z" fill="#23C0FF"/>
<path d="M3.646 26.25H30.6252" stroke="black" stroke-width="2" stroke-linecap="round"/>
<path d="M21.146 14.5835C22.1182 13.1252 25.0835 9.91688 27.7085 11.6669C30.2606 13.3682 28.0731 17.5002 26.9793 18.9585" fill="#F80000"/>
<path d="M21.146 14.5835C22.1182 13.1252 25.0835 9.91688 27.7085 11.6669C30.2606 13.3682 28.0731 17.5002 26.9793 18.9585" stroke="black" stroke-width="2" stroke-linecap="round" stroke-linejoin="round"/>
</svg>
